<svg width="132" height="124" viewBox="0 0 132 124" fill="none" xmlns="http://www.w3.org/2000/svg">
<path d="M59.4758 118.824C59.1663 115.161 62.5413 112.659 66.2551 113.807C67.4634 114.189 68.5388 115.102 69.1135 116.264C69.4525 116.985 69.512 117.28 69.512 118.354C69.5119 119.398 69.4531 119.766 69.1438 120.428C68.4069 122.032 67.2423 122.915 65.4739 123.224C62.3644 123.768 59.7264 121.841 59.4758 118.824ZM36.6184 113.778C37.5762 113.439 39.4179 113.498 40.4202 113.88C40.7883 114.027 41.142 114.189 41.2014 114.248C41.3045 114.337 41.143 114.852 40.9368 115.102C40.9073 115.131 40.6271 115.014 40.2883 114.852C38.5789 113.984 36.1621 114.499 35.9114 115.779C35.7051 116.882 36.4709 117.485 38.7991 118.074C40.8181 118.588 41.5702 119.163 41.7913 120.384C41.968 121.311 41.3783 122.355 40.3762 122.885C38.9614 123.606 36.0873 123.312 34.761 122.297C34.4811 122.091 34.4813 122.061 34.7317 121.694L34.9827 121.296L35.4094 121.605C36.102 122.105 37.0013 122.341 38.1653 122.341C39.4473 122.341 40.1849 122.062 40.4944 121.444C41.0397 120.399 40.5234 119.56 39.1086 119.162C36.9425 118.574 36.3086 118.353 35.8518 118.044C35.0562 117.5 34.7619 116.985 34.7766 116.191C34.7913 114.94 35.3363 114.234 36.6184 113.778ZM75.9963 113.734C76.0405 113.587 79.5626 113.587 80.7268 113.734C81.0509 113.778 81.6549 114.013 82.0823 114.248C83.497 115.058 83.9981 116.911 83.217 118.456C83.0402 118.809 82.628 119.222 82.1565 119.531C81.4049 120.031 81.3902 120.046 81.6555 120.34C82.0537 120.797 83.4526 122.768 83.5559 123.018C83.6148 123.18 83.497 123.224 83.0549 123.224C82.4953 123.224 82.4658 123.194 81.4641 121.679L80.4465 120.134H76.9543L77.0569 121.694L77.1604 123.239L76.5852 123.195L76.011 123.15L75.967 118.515C75.9523 115.971 75.9522 113.823 75.9963 113.734ZM54.5686 114.542H51.1789V123.224H50.1467V114.542H46.7571V113.659H54.5686V114.542ZM90.3059 113.69C90.3501 113.572 90.4828 113.527 90.6155 113.572C90.7481 113.616 92.2071 113.659 93.8577 113.659H96.8645V114.542H91.2493L91.2932 116.191L91.3371 117.853L93.8137 117.898L96.2746 117.927V118.662L93.8137 118.692L91.3371 118.736L91.2932 120.532L91.2493 122.341H97.1731L97.1291 122.739L97.0852 123.15H90.3059L90.262 118.515C90.2472 115.973 90.2618 113.797 90.3059 113.69ZM67.6252 115.999C66.7557 114.866 65.0905 114.233 63.7053 114.528C62.9832 114.675 62.0841 115.176 61.6125 115.676C60.5369 116.809 60.2712 118.854 61.0227 120.296C61.73 121.664 62.9388 122.341 64.5891 122.341C66.0332 122.326 66.9471 121.826 67.8313 120.546C68.2292 119.972 68.3182 119.678 68.3772 118.854C68.4656 117.603 68.2737 116.823 67.6252 115.999ZM77.0871 116.911L77.1311 119.281L78.9289 119.222C80.4026 119.178 80.8303 119.104 81.3166 118.854C82.9669 117.971 82.8339 115.72 81.0803 114.837C80.6088 114.587 80.2109 114.542 78.7815 114.542H77.0422L77.0871 116.911ZM57.0149 83.0852C59.6822 81.5404 63.0272 81.0994 66.1955 81.8938C68.0081 82.3499 69.8799 83.3498 71.0442 84.4973C72.6947 86.1158 73.6086 87.6168 74.2717 89.7796C74.6254 90.9566 74.6702 91.2953 74.6702 93.5755C74.6849 96.371 74.5221 97.2986 73.6526 99.1819C72.002 102.787 68.9812 105.096 65.135 105.714C63.6172 105.964 61.0237 105.832 59.5793 105.42C56.5729 104.582 54.0962 102.58 52.7551 99.9026C49.7637 93.9142 51.7243 86.175 57.0149 83.0852ZM16.6204 83.8948C16.6793 84.9392 16.7375 86.3069 16.7375 86.9544L16.7668 88.1321L16.178 88.1761L15.5881 88.22L15.3967 86.9993C15.1609 85.5721 14.7335 84.7478 13.9377 84.2034C13.024 83.5707 12.2577 83.4388 9.54613 83.4387C7.32118 83.424 6.98212 83.4534 6.56957 83.7034C5.77377 84.1889 5.7141 84.5124 5.7141 88.6468V92.3987L8.36742 92.4427C11.6238 92.4868 11.5797 92.5018 11.6829 90.972L11.7571 89.8977H13.1858L13.26 93.2376L13.3332 96.5921H12.0217L11.9338 95.9153C11.8454 95.1062 11.4769 94.5467 10.7844 94.2083C10.3718 93.9876 9.88482 93.9436 7.96899 93.9436H5.64086V103.979L9.29516 103.919C12.5963 103.86 13.0095 103.832 13.7463 103.537C15.2642 102.949 16.1038 101.713 16.4133 99.6233L16.5754 98.5052H17.9172L17.8284 100.373C17.7694 101.418 17.7248 102.934 17.7248 103.758V105.273H0.0695716L0.0109779 104.743C-0.0184838 104.449 0.0114294 104.199 0.0998451 104.169C1.79422 103.669 2.01544 103.463 2.25121 102.183C2.33959 101.724 2.41324 97.5618 2.42797 92.5022L2.47192 83.6438H0.0402747V82.0257H16.5168L16.6204 83.8948ZM34.3489 82.6438C34.3047 83.2323 34.275 83.2762 33.7151 83.3792C32.993 83.541 32.5063 83.9826 32.3147 84.6595C32.2263 84.9833 32.1672 88.809 32.1672 94.5618V103.949H34.9387C39.0498 103.948 40.1109 103.699 41.2014 102.492C41.7467 101.889 42.3362 100.358 42.3362 99.5345C42.3362 99.3138 42.3809 98.9172 42.425 98.6673C42.5134 98.2407 42.5574 98.2102 43.176 98.2102H43.8391L43.7366 101.33C43.6923 103.052 43.6039 104.641 43.5745 104.876L43.4856 105.273L35.0705 105.243L26.6409 105.199V104.699C26.6409 104.229 26.6708 104.199 27.3782 104.023C28.1885 103.817 28.5566 103.449 28.7629 102.655C28.8514 102.331 28.9258 98.1957 28.9553 92.8694L28.9993 83.6438H26.5676V82.0257H34.3928L34.3489 82.6438ZM83.3352 82.9973C83.2468 81.938 82.8195 81.996 89.2297 82.0696C94.1962 82.1137 95.1402 82.1585 95.9065 82.3792C97.38 82.8059 98.5888 83.4822 99.2961 84.262C101.271 86.4543 101.05 90.3688 98.8245 92.4876C97.9108 93.3704 97.1147 93.8559 95.9504 94.2532C95.4352 94.4149 95.008 94.5761 94.9778 94.5911C94.9336 94.6499 99.516 101.579 100.239 102.522C100.799 103.272 101.388 103.654 102.435 103.934C103.024 104.096 103.054 104.126 103.054 104.685V105.273H98.3079L97.7629 104.685C97.4534 104.346 96.4958 102.904 95.6116 101.477C93.5338 98.1225 91.8981 95.6067 91.5442 95.2532C91.3084 95.0178 91.0429 94.9739 90.0852 94.9739H88.9055V103.802H91.2639V105.273L87.3293 105.243L83.3791 105.199V104.699C83.3791 104.229 83.4091 104.199 84.1164 104.023C84.9268 103.817 85.2949 103.449 85.5012 102.655C85.5896 102.331 85.6641 98.2545 85.6936 92.8841L85.7375 83.6595L84.5588 83.6145L83.3791 83.5706L83.3352 82.9973ZM119.442 81.6282C119.619 81.4224 120.267 81.3785 120.547 81.555C120.753 81.6876 120.99 82.2193 123.347 88.0579C127.002 97.0773 128.578 101.139 128.947 102.434L129.345 103.802H131.496V105.273H123.243V104.773C123.243 104.302 123.274 104.258 123.966 104.096C124.364 104.008 124.835 103.773 125.012 103.581C125.513 103.037 125.366 101.8 124.54 99.7552L123.892 98.137L119.56 98.093C116.2 98.0636 115.212 98.1081 115.109 98.2405C115.049 98.3451 114.726 99.2566 114.387 100.271C114.048 101.286 113.606 102.463 113.429 102.905C113.237 103.331 113.075 103.714 113.075 103.743C113.081 103.773 113.521 103.802 114.077 103.802C115.61 103.802 115.728 103.861 115.728 104.626V105.273H109.096V104.685C109.096 104.17 109.14 104.096 109.449 104.096C109.862 104.096 110.658 103.581 111.041 103.066C111.19 102.857 112.53 99.4884 114.018 95.5618C115.506 91.6334 117.069 87.5576 117.496 86.513C117.924 85.4536 118.499 83.9674 118.779 83.2024C119.059 82.4375 119.353 81.7312 119.442 81.6282ZM65.0168 83.3352C63.941 82.9969 62.0842 82.9824 60.9495 83.2766C57.6926 84.1595 55.4669 87.3373 55.01 91.7366C54.73 94.5322 55.1428 97.0192 56.2776 99.3587C57.3976 101.683 59.4022 103.493 61.4211 104.023C62.4085 104.273 64.0589 104.302 65.0168 104.081C67.8464 103.434 70.19 100.624 70.9416 96.9602C71.3395 95.0916 71.2658 92.3251 70.7942 90.4124C69.9099 86.8959 67.6843 84.1592 65.0168 83.3352ZM119.382 86.3811C119.338 86.4555 119.19 86.8817 119.043 87.3225C118.793 88.1171 116.494 94.2973 115.89 95.8128L115.58 96.5921H123.391L123.081 95.8128C122.168 93.5469 120.621 89.5295 120.075 87.9993C119.736 87.043 119.426 86.3076 119.382 86.3811ZM92.7815 83.4973C91.6617 83.3355 91.2931 83.3355 90.4827 83.4973C89.7901 83.6298 89.2445 84.1302 89.053 84.8069C88.9793 85.1024 88.9055 87.1768 88.9055 89.4124V93.5022H90.4241C93.8428 93.5022 95.9943 92.3548 96.8049 90.0891C97.1586 89.118 97.1295 87.1164 96.7463 86.263C96.0537 84.7035 94.7414 83.7769 92.7815 83.4973ZM86.3118 19.4934C86.4002 19.4934 86.8277 19.9053 87.2698 20.4202C89.7308 23.2451 91.6319 27.409 92.133 31.0432C92.4867 33.5004 92.2215 36.5169 91.4846 38.7239C91.2787 39.3113 91.117 39.8549 91.1164 39.93C91.1164 40.0035 91.6622 39.9005 92.3401 39.7093C95.8473 38.7089 98.1759 38.8861 101.948 40.4163C102.759 40.7547 103.451 41.0343 103.481 41.0637C103.51 41.094 103.201 41.8144 102.788 42.6673C100.563 47.2283 97.9837 49.7146 94.4026 50.7151C93.4596 50.9799 92.8849 51.0247 91.1907 51.0247C90.0412 51.0247 88.9499 50.9509 88.7141 50.8626L88.3166 50.6858L88.9211 49.7005C89.9085 48.0673 89.8934 48.0813 91.4553 48.0813C93.828 48.0813 95.6553 47.3162 97.3059 45.6682C98.2638 44.7119 99.2363 43.2847 99.2805 42.7845C99.3093 42.4021 98.1016 42.1223 96.2746 42.1223C93.5188 42.0929 91.3224 42.9466 89.5539 44.7122C88.0509 46.2276 87.5201 47.0814 85.0149 52.1868C82.3918 57.5423 81.0659 59.6466 78.9143 61.8977C74.8026 66.1794 69.6589 68.4895 63.2629 68.9456C58.5471 69.2692 53.9638 68.4157 50.4416 66.5471C47.9953 65.2523 45.21 62.8686 43.7805 60.8382C42.8226 59.4845 41.6733 57.2624 41.3049 56.0559C39.8608 51.3183 40.2292 45.742 42.2776 41.4163C43.8103 38.1941 46.6548 34.8398 49.7053 32.7063C52.24 30.9261 55.5702 29.3809 58.7239 28.5423C59.7555 28.2627 59.8588 28.13 59.1809 27.9534C58.2967 27.7327 56.4993 26.9531 55.5266 26.3352C54.4213 25.6437 52.8591 24.1424 52.4612 23.3626C52.2254 22.9213 52.2253 22.8922 52.4758 22.8186C53.0363 22.6568 55.7473 22.3034 57.0735 22.2151L58.4739 22.1126L58.8274 22.7893C60.0801 25.2022 63.1016 26.5557 67.8616 26.8206L69.8215 26.9231L69.8655 27.8948C69.8949 28.5568 69.8506 28.91 69.718 29.013C69.6144 29.0866 68.7595 29.2332 67.8313 29.3362C59.4755 30.2044 53.2715 34.2365 50.0588 40.9016C48.5557 44.0061 48.0103 46.625 48.1282 50.2444C48.2018 52.9075 48.5261 54.5113 49.425 56.6595C50.8546 60.073 53.8759 63.1485 57.1623 64.5169C59.2991 65.3996 60.8761 65.723 63.1897 65.7083C65.4885 65.7083 66.8884 65.4876 68.9514 64.8108C74.4189 62.9863 78.516 58.9106 80.2698 53.5696C80.8592 51.7747 80.9924 50.789 80.9924 48.6262C80.9924 45.4187 80.2993 43.4765 78.4719 41.5491C76.9099 39.8866 74.9353 39.0619 72.5481 39.0618C68.5691 39.0765 65.1795 41.4312 63.47 45.3743C62.2026 48.3023 62.2017 51.4956 63.4543 54.9827C63.7781 55.8938 63.9113 56.4229 63.8088 56.4241C63.4699 56.4241 61.7162 55.1738 60.9055 54.3645C60.036 53.4964 59.2248 52.0395 58.7385 50.4651C58.547 49.8031 58.4738 49.1408 58.4885 47.8167C58.5033 46.2572 58.5476 45.8894 58.9602 44.6536C59.5939 42.7409 60.5368 41.1958 61.9221 39.8128C64.5453 37.1938 67.6995 35.928 71.5901 35.928C73.6973 35.928 75.2446 36.1784 76.6741 36.7522C79.5478 37.9146 81.5965 39.9891 82.8049 42.9612C83.2618 44.0794 83.453 44.8152 83.8508 46.9778L83.969 47.6106L85.0452 45.7278C88.8178 39.1362 89.8197 35.5017 89.1418 30.97C88.8029 28.7335 87.5057 25.5255 86.4446 24.2454L86.1057 23.8333L85.4719 24.5257C83.6447 26.5561 82.4212 29.778 82.4211 32.6175C82.4211 34.1477 82.5984 35.2369 83.1584 37.1643C83.3942 37.9882 83.5562 38.7091 83.512 38.7532C83.4676 38.797 83.2021 38.532 82.9075 38.179C82.6124 37.8109 81.7874 36.9435 81.0657 36.2376C79.5477 34.7662 79.4886 34.6185 79.4739 32.3968C79.4739 28.4242 81.2575 24.5544 84.7649 20.9202C85.5299 20.1418 86.2215 19.4956 86.3118 19.4934ZM61.4358 2.27859C65.6212 0.292263 71.1477 -0.48762 75.3625 0.306912C79.7983 1.14558 82.5693 3.33763 83.2473 6.57449C83.6305 8.35483 83.2912 10.3124 82.3332 11.9456C81.3752 13.5934 78.8551 15.6971 76.6594 16.6829C72.7541 18.4485 68.2883 19.3165 60.8313 19.7874C52.2693 20.3171 47.362 21.3474 43.2209 23.4807C41.2314 24.5107 39.8903 25.4672 38.3577 26.9973C35.027 30.2932 33.4202 33.81 33.2434 38.1946C33.0814 41.9903 33.9508 45.2418 35.8811 48.0813C36.2051 48.5518 36.4415 48.9791 36.3977 49.0091C36.3534 49.0532 35.8958 48.8764 35.3948 48.6116C32.4032 47.1255 29.9865 44.3884 29.0139 41.4163C28.4539 39.7538 28.2922 38.5914 28.2922 36.4876C28.2922 33.6186 29.0286 30.8672 30.3401 28.7044C33.3907 23.7165 38.0187 20.6554 44.842 19.1399C46.2866 18.8309 50.1325 18.1692 50.5598 18.1692C50.6335 18.1687 50.7363 17.4626 50.7805 16.5803C51.1195 10.5625 55.0104 5.3243 61.4358 2.27859ZM74.9348 2.85183C73.6675 2.46941 71.5016 2.36643 70.1164 2.63113C66.4175 3.35207 62.8063 5.83877 60.4631 9.26687C60.08 9.8259 59.5932 10.6205 59.4016 11.0325C58.5174 12.7834 57.8108 15.3444 57.8108 16.8011C57.8108 17.4333 57.8252 17.4478 58.2229 17.3743C58.4439 17.3302 59.1807 17.2563 59.8733 17.2122C63.1006 16.9768 67.1239 16.2266 69.7766 15.388C71.7513 14.7553 72.7244 14.2992 74.1096 13.3723C79.1792 10.0177 79.6212 4.32319 74.9348 2.85183Z" fill="#D9D9D9"/>
</svg>

