<svg width="107" height="99" viewBox="0 0 107 99" fill="none" xmlns="http://www.w3.org/2000/svg">
<path d="M82.5168 27.7239C82.6425 27.7239 83.2505 28.3098 83.8793 29.0421C87.3793 33.0597 90.0831 38.9817 90.7958 44.1503C91.2989 47.645 90.9217 51.9351 89.8736 55.074C89.5808 55.9094 89.3508 56.6825 89.35 56.7893C89.35 56.8939 90.1262 56.7474 91.0904 56.4755C96.0784 55.0527 99.3902 55.3047 104.755 57.481C105.908 57.9622 106.893 58.3599 106.935 58.4017C106.976 58.4448 106.537 59.4694 105.95 60.6824C102.785 67.1691 99.1168 70.7052 94.0237 72.1281C92.6825 72.5047 91.8652 72.5685 89.4556 72.5685C87.8208 72.5685 86.2687 72.4635 85.9334 72.3379L85.368 72.0865L86.2278 70.6852C87.6321 68.3624 87.6106 68.3823 89.832 68.3823C93.2065 68.3823 95.8053 67.2942 98.1528 64.9503C99.5152 63.5903 100.898 61.5605 100.961 60.8491C101.002 60.3052 99.2845 59.9073 96.6861 59.9073C92.7667 59.8655 89.643 61.0796 87.1278 63.5907C84.9902 65.7459 84.2352 66.9602 80.6723 74.2212C76.9417 81.8379 75.0559 84.8307 71.9959 88.0323C66.1481 94.1218 58.8326 97.4073 49.7361 98.056C43.0292 98.5162 36.5107 97.3023 31.5014 94.6448C28.0222 92.8033 24.0609 89.4131 22.0278 86.5254C20.6655 84.6002 19.0309 81.4399 18.507 79.7239C16.4531 72.986 16.9771 65.0553 19.8903 58.9032C22.0702 54.3205 26.1157 49.5499 30.4542 46.5156C34.0591 43.9838 38.7954 41.7862 43.2806 40.5935C44.7478 40.1958 44.8947 40.0071 43.9306 39.7559C42.6731 39.4421 40.1168 38.3333 38.7334 37.4545C37.1614 36.471 34.9396 34.3359 34.3737 33.2268C34.0383 32.5992 34.0382 32.5578 34.3945 32.4531C35.1916 32.223 39.0473 31.7204 40.9334 31.5948L42.9251 31.449L43.4278 32.4114C45.2095 35.8431 49.5067 37.7681 56.2765 38.1449L59.0639 38.2906L59.1265 39.6726C59.1683 40.6141 59.1053 41.1164 58.9167 41.2629C58.7694 41.3676 57.5535 41.5761 56.2334 41.7226C44.3496 42.9574 35.5261 48.6919 30.9569 58.1712C28.8192 62.5865 28.0435 66.3111 28.2112 71.4587C28.3159 75.2462 28.7771 77.5272 30.0555 80.5824C32.0887 85.4372 36.3857 89.8112 41.0597 91.7574C44.0987 93.0128 46.3415 93.4727 49.632 93.4518C52.9014 93.4518 54.8924 93.1379 57.8264 92.1754C65.6024 89.5805 71.4294 83.784 73.9237 76.1879C74.762 73.6351 74.9514 72.2332 74.9514 69.1573C74.9514 64.5955 73.9657 61.8332 71.3667 59.0921C69.1452 56.7276 66.3369 55.5547 62.9417 55.5546C57.2827 55.5755 52.4619 58.9244 50.0307 64.5323C48.2281 68.6966 48.2268 73.2382 50.0083 78.1976C50.4688 79.4934 50.6583 80.2459 50.5125 80.2476C50.0305 80.2476 47.5364 78.4694 46.3834 77.3184C45.1467 76.0838 43.993 74.0117 43.3014 71.7726C43.029 70.8311 42.9249 69.8891 42.9458 68.006C42.9669 65.788 43.0299 65.2649 43.6167 63.5073C44.518 60.7871 45.859 58.5896 47.8292 56.6227C51.56 52.8979 56.0459 51.0976 61.5792 51.0976C64.5761 51.0976 66.7768 51.4537 68.8098 52.2698C72.8969 53.923 75.8106 56.8734 77.5292 61.1004C78.179 62.6907 78.4509 63.7372 79.0167 66.8129L79.1848 67.7129L80.7154 65.0351C86.0809 55.6604 87.5058 50.4913 86.5417 44.0462C86.0597 40.8654 84.2148 36.3029 82.7056 34.4823L82.2236 33.8962L81.3222 34.881C78.7236 37.7687 76.9835 42.3509 76.9833 46.3893C76.9833 48.5656 77.2355 50.1147 78.0319 52.8559C78.3673 54.0277 78.5977 55.0529 78.5348 55.1157C78.4717 55.178 78.0941 54.8011 77.6751 54.299C77.2554 53.7755 76.0821 52.5419 75.0556 51.5379C72.8967 49.4453 72.8127 49.2352 72.7918 46.0755C72.7918 40.4255 75.3284 34.9218 80.3167 29.7532C81.4047 28.6461 82.3883 27.7271 82.5168 27.7239ZM47.1376 3.24066C53.0901 0.415662 60.9501 -0.693505 66.9444 0.436496C73.2531 1.62927 77.1941 4.74685 78.1584 9.35039C78.7034 11.8824 78.2208 14.6665 76.8583 16.9893C75.4958 19.3328 71.9117 22.3248 68.7889 23.7268C63.2347 26.2379 56.8833 27.4724 46.2778 28.1421C34.1008 28.8954 27.1215 30.3607 21.2319 33.3948C18.4024 34.8597 16.4951 36.22 14.3154 38.3962C9.57838 43.0837 7.29316 48.0853 7.04171 54.3212C6.81131 59.7195 8.04779 64.3439 10.7931 68.3823C11.2539 69.0514 11.5901 69.6592 11.5278 69.7018C11.4648 69.7646 10.814 69.5131 10.1015 69.1365C5.84675 67.0229 2.40967 63.1302 1.02642 58.9032C0.229974 56.5387 0 54.8855 0 51.8935C0 47.8131 1.04732 43.9 2.91257 40.824C7.2512 33.7301 13.8332 29.3766 23.5375 27.2212C25.592 26.7817 31.0618 25.8406 31.6695 25.8406C31.7743 25.8399 31.9205 24.8357 31.9834 23.5809C32.4655 15.0222 37.9992 7.57234 47.1376 3.24066ZM66.3361 4.05593C64.5338 3.51205 61.4534 3.36559 59.4833 3.74205C54.2227 4.76739 49.0867 8.30403 45.7542 13.1795C45.2093 13.9746 44.517 15.1047 44.2445 15.6907C42.987 18.1808 41.982 21.8231 41.982 23.8949C41.982 24.794 42.0025 24.8146 42.5681 24.7101C42.8824 24.6474 43.9303 24.5423 44.9153 24.4796C49.5053 24.1448 55.2273 23.0778 59 21.8852C61.8085 20.9853 63.1925 20.3366 65.1625 19.0184C72.3726 14.2474 73.0012 6.14854 66.3361 4.05593Z" fill="#D9D9D9"/>
</svg>
